# xmcd
#
# Track frame offsets: 
#        150
#        13670
#        32467
#        47247
#        65487
#        81487
#        98280
#        130327
#        150810
#        172257
#        187932
#        205597
#
# Disc length: 2961 seconds
#
# Revision: 3
# Processed by: cddbd v1.5.2PL0 Copyright (c) Steve Scherf et al.
# Submitted via: ExactAudioCopyFreeDBPlugin 1.0
#
DISCID=8f0b8f0c
DTITLE=Various Artist - Southbound:  The Bluegrass and Jam Band Tribu
DTITLE=te to the Allman Brothers
DYEAR=2000
DGENRE=Bluegrass
TTITLE0=The Nashville Superpickers - Midnight Rider
TTITLE1=The Nashville Superpickers - Statesboro Blues
TTITLE2=The Nashville Superpickers - Blue Sky
TTITLE3=The Nashville Superpickers - In Memory of Elizabeth Reed
TTITLE4=The Nashville Superpickers - Ramblin' Man
TTITLE5=The Nashville Superpickers - Done Somebody Wrong
TTITLE6=The Nashville Superpickers - Whipping Post
TTITLE7=The Nashville Superpickers - Melissa
TTITLE8=The Nashville Superpickers - You Don't Love Me
TTITLE9=The Nashville Superpickers - Hot 'Lanta
TTITLE10=The Nashville Superpickers - Southbound
TTITLE11=The Nashville Superpickers - Little Martha
EXTD=YEAR: 2000
EXTT0=
EXTT1=
EXTT2=
EXTT3=
EXTT4=
EXTT5=
EXTT6=
EXTT7=
EXTT8=
EXTT9=
EXTT10=
EXTT11=
PLAYORDER=
